<?xml version="1.0" ?>

<!-- Uploaded to: SVG Repo, www.svgrepo.com, Generator: SVG Repo Mixer Tools -->
<svg fill="#000000" width="800px" height="800px" viewBox="0 0 64 64" xmlns="http://www.w3.org/2000/svg">

    <g id="health">

        <path d="M57.9332,35.6372,58.7,34.87a1,1,0,0,0-1.4141-1.414l-.7668.7669-.7669-.7669a1,1,0,0,0-1.414,1.414l.7669.7671-.7669.7671a1,1,0,1,0,1.414,1.4141l.7669-.767.7668.767A1,1,0,1,0,58.7,36.4043Z"/>

        <circle cx="54" cy="49" r="1"/>

        <path d="M35.3345,36.37a22.5127,22.5127,0,0,1-16.669,0,1,1,0,1,0-.7832,1.84,24.1164,24.1164,0,0,0,18.2354,0,1,1,0,1,0-.7832-1.84Z"/>

        <circle cx="20" cy="30" r="2"/>

        <circle cx="34" cy="30" r="2"/>

        <path d="M32,11a3,3,0,1,0-3-3A3.0033,3.0033,0,0,0,32,11Zm0-4a1,1,0,1,1-1,1A1.0009,1.0009,0,0,1,32,7Z"/>

        <path d="M55,26a1,1,0,0,0,1-1V10a1,1,0,0,0-1-1H38a1,1,0,0,0-1,1v4.1781A23.9932,23.9932,0,1,0,48.8208,26ZM39,11H54V24H39ZM49,36A22.0106,22.0106,0,1,1,37,16.4082V25a1,1,0,0,0,1,1h8.5928A22.0556,22.0556,0,0,1,49,36Z"/>

        <path d="M51,15H49V13a1,1,0,0,0-1-1H45a1,1,0,0,0-1,1v2H42a1,1,0,0,0-1,1v3a1,1,0,0,0,1,1h2v2a1,1,0,0,0,1,1h3a1,1,0,0,0,1-1V20h2a1,1,0,0,0,1-1V16A1,1,0,0,0,51,15Z"/>

    </g>

</svg>